<?xml version="1.0" encoding="UTF-8"?>
<svg id="Layer_1" data-name="Layer 1" xmlns="http://www.w3.org/2000/svg" viewBox="0 0 682.06 162.11">
  <defs>
    <style>
      .cls-1 {
        fill: #2e2320;
      }
    </style>
  </defs>
  <g id="_902944" data-name="902944">
    <g>
      <g id="_490485" data-name="490485">
        <path class="cls-1" d="M190.35,80.4c-2.12-12.88-7.18-24.73-13.98-35.83-9.14-14.93-20.97-26.57-36.01-34.33-3.98-2.06-8.19-3.85-12.62-5.35C116.32,1.02,104.57.21,92.64.01c-14.72-.24-28.64,3.17-41.16,10.24-.51.29-1.02.58-1.52.88-12.72,7.56-23.21,16.79-31.23,27.74-8.79,12-14.65,26.07-17.32,42.29-2.1,12.8-1.92,25.5,1.12,38.13,2.56,10.63,7.17,20.43,12.78,29.75,1.08,1.79,2.23,3.55,3.42,5.28,1.31,1.92,2.69,3.8,4.09,5.65,1.65,2.19,3.45,2.46,4.92,1.35,1.45-1.11,1.42-2.7-.1-5.1-.09-.13-.18-.25-.26-.38-2.58-4.14-5.29-8.21-7.72-12.44-.31-.54-.62-1.09-.92-1.64-10.24-18.64-13.52-38.6-10.12-59.65,1.71-10.59,4.96-20.62,10.12-29.85,1.6-2.86,3.38-5.65,5.36-8.35,12.52-17.08,28.06-28.49,46.33-33.63,6.6-1.85,13.55-2.89,20.84-3.08,5.52.31,9.41.45,13.29.74,5.1.38,10,1.16,14.71,2.34,16.36,4.08,30.39,12.91,41.93,26.1,13.48,15.41,21.41,33.65,22.93,54.28,1.31,17.86-2.07,34.8-11.15,50.4-3.22,5.54-6.75,10.9-10.11,16.36-.76,1.25-1.49,2.47.09,3.82,1.57,1.35,3,1.11,4.25-.16,1.32-1.35,2.58-2.83,3.57-4.44,4.58-7.45,9.38-14.8,13.47-22.52,4.46-8.44,6.15-17.75,6.91-27.25.71-8.85.64-17.7-.79-26.45h0Z" vector-effect="non-scaling-stroke"/>
      </g>
      <g id="_530308" data-name="530308">
        <path class="cls-1" d="M166.42,151.31l-27.21-4.6c.35-1.29.88-3.05.78-3.05.29-1.53.53-2.8.77-4.08,1.04-5.62,4.23-10.18,7.26-14.83.66-1.01,1.09-2.39,1.05-3.58-.12-3.58-.62-7.15-.82-10.73-.36-6.46-1.18-12.77-3.62-18.87-1.87-4.69-3.04-9.65-4.83-14.38-.81-2.13-1.94-4.43-3.6-5.9-6.62-5.86-10.12-13.53-13.09-21.52-.69-1.86-1.47-2.78-3.44-3.07-5.76-.86-11.45-1.97-15.92-6.24-.51-.49-1.69-.58-2.48-.44-2.31.44-4.56,1.19-6.87,1.65-6.34,1.26-11.88,4.41-17.69,7.03-3.56,1.6-5.98,3.65-7.2,7.3-1.04,3.11-3.17,5.16-6.19,6.54-3.56,1.63-6.99,3.54-10.43,5.42-.66.35-1.45,1-1.6,1.65-1.27,5.54-4.18,10.23-7.44,14.76-1.62,2.25-3.17,4.48-2.72,7.57.25,1.73.19,3.62-.21,5.32-1.23,5.3-2.62,10.55-4.09,15.79-.49,1.75-.42,3.06.51,4.78,2.38,4.43,5.06,8.92,6.16,13.72.79,3.41,1.17,6.79,3.17,9.76.35.52.52,1.18.92,2.15l1.56,3.8-23.98,4.05h141.25ZM104.01,92.29c-2.59,2.2-5.16,4.44-7.73,6.66-.87.75-1.74,1.5-2.6,2.25-.69.6-1.39,1.2-2.09,1.79-.69.59-1.39,1.19-2.09,1.78-.62.52-1.24,1.04-1.87,1.56-1.06.88-2.13,1.75-3.19,2.61-.81.65-1.62,1.29-2.43,1.92-.81.63-1.63,1.26-2.45,1.88-3.84,2.9-8.94,4.2-13.56,5.99-1.57.61-2.29,1.31-3,2.92-1.56,3.53-3.77,6.77-5.68,10.15-1.41,2.5-2.74,5.04-4.11,7.57-.87-1.24-2.09-2.84-3.13-4.56-.28-.45-.19-1.36.09-1.86,3.08-5.54,6.32-10.98,9.29-16.57.98-1.83,1.94-3.01,4.08-3.67,3.41-1.05,6.73-2.53,9.9-4.18,1.32-.69,2.65-1.39,3.97-2.08,2.18-1.15,4.36-2.3,6.53-3.46,6.74-3.59,13.44-7.19,20.07-10.74v.03h0ZM130.69,75.99c.31-.71,1.56-1.01,2.38-1.5.25.25.5.52.75.77-2.56,5.15-5.12,10.3-7.68,15.45-.4-.2-.8-.41-1.2-.6,1.89-4.72,3.71-9.47,5.74-14.13ZM123.84,106.57c-.14,3.12-.14,7.05-.59,10.94-.12,1.06-1.4,2.2-2.42,2.9-2.34,1.58-5.16,2.56-7.18,4.45-1.85,1.73-2.9,4.32-4.19,6.36.11-4.18,1.66-8.24,4.27-11.8,3.36-4.56,7-8.92,10.1-12.84h0ZM43.01,115.53c0-1.52-.18-2.39.03-3.17,1.71-6.62,3.6-13.15,3.51-20.14-.03-2.16,1.4-4.42,2.45-6.49,1.06-2.1,2.85-3.88,3.67-6.05,2.47-6.48,7.71-9.98,13.53-12.65,3.59-1.64,6.15-4.03,7.75-7.43,1.53-3.23,3.93-5.35,7.09-6.76,5.12-2.29,10.24-4.6,15.37-6.86.67-.29,1.41-.5,2.13-.54,1.51-.07,2.4.76,1.44,2.09-3.42,4.75-5.71,10.17-11.26,13.49-5.69,3.4-10.54,8.19-15.74,12.4-.48.39-.84.95-1.12,1.65,7.6-1.69,14.35-5.25,21.06-9.03,6.75-3.8,13.7-7.23,20.56-10.83.14.16.28.31.41.48-.59.52-1.15,1.08-1.77,1.57-6.32,5.05-12.74,9.98-18.92,15.19-1.38,1.16-2.24,3.16-2.89,4.94-1.76,4.8-3.26,9.69-4.92,14.53-.27.78-.84,1.45-1.55,2.07,1.33-5.93,2.11-11.81,1.22-18.23-2.22,1.56-4.07,2.99-6.05,4.2-5.7,3.5-11.38,7.03-17.22,10.3-1.89,1.05-2.78,2.18-3.33,4.29-2.15,8.18-4.61,16.28-6.97,24.41-.06.2-.28.36-.42.54-.16-.01-.32-.03-.48-.04.7-7.17,1.4-14.34,2.09-21.52-3.16,5.71-4.97,11.99-9.69,17.59h.01Z" vector-effect="non-scaling-stroke"/>
      </g>
    </g>
  </g>
  <g>
    <path class="cls-1" d="M236.62,77.5V24.49h22.88c3.93,0,7.38.72,10.33,2.15,2.95,1.43,5.25,3.49,6.89,6.19,1.64,2.69,2.46,5.92,2.46,9.68s-.84,7-2.52,9.6-4.04,4.57-7.07,5.9c-3.03,1.33-6.56,1.99-10.6,1.99h-13.67v-11.18h10.77c1.69,0,3.14-.21,4.34-.63,1.2-.42,2.12-1.1,2.77-2.03.65-.93.97-2.15.97-3.65s-.32-2.76-.97-3.71c-.65-.96-1.57-1.67-2.77-2.12-1.2-.46-2.65-.69-4.34-.69h-5.07v41.52h-14.39ZM267.68,53.17l13.25,24.33h-15.64l-12.94-24.33h15.32Z"/>
    <path class="cls-1" d="M336.64,50.99c0,5.9-1.15,10.88-3.44,14.92-2.3,4.05-5.39,7.11-9.29,9.19-3.9,2.08-8.25,3.12-13.05,3.12s-9.19-1.05-13.09-3.15-6.98-5.17-9.27-9.22-3.43-9-3.43-14.87,1.14-10.88,3.43-14.92c2.29-4.05,5.38-7.11,9.27-9.19,3.89-2.08,8.25-3.12,13.09-3.12s9.15,1.04,13.05,3.12c3.9,2.08,7,5.14,9.29,9.19,2.29,4.05,3.44,9.02,3.44,14.92ZM321.84,50.99c0-3.17-.42-5.85-1.26-8.04-.84-2.18-2.07-3.84-3.7-4.97-1.63-1.13-3.64-1.7-6.02-1.7s-4.39.57-6.02,1.7c-1.63,1.13-2.86,2.79-3.7,4.97-.84,2.18-1.26,4.86-1.26,8.04s.42,5.85,1.26,8.04c.84,2.18,2.07,3.84,3.7,4.97s3.64,1.7,6.02,1.7,4.39-.56,6.02-1.7,2.86-2.79,3.7-4.97c.84-2.18,1.26-4.86,1.26-8.04Z"/>
    <path class="cls-1" d="M392.76,44.37h-14.6c-.1-1.21-.38-2.3-.82-3.29-.44-.98-1.04-1.83-1.81-2.55s-1.7-1.27-2.78-1.66c-1.09-.39-2.32-.58-3.7-.58-2.42,0-4.46.59-6.12,1.76-1.67,1.17-2.92,2.86-3.78,5.05-.85,2.19-1.28,4.82-1.28,7.9,0,3.24.44,5.96,1.31,8.14.87,2.18,2.14,3.82,3.79,4.92,1.66,1.1,3.65,1.64,5.98,1.64,1.33,0,2.52-.17,3.57-.5,1.05-.34,1.97-.82,2.74-1.46.78-.64,1.41-1.41,1.9-2.32.49-.91.82-1.93,1-3.07l14.6.1c-.17,2.24-.8,4.53-1.89,6.85-1.09,2.32-2.63,4.46-4.62,6.42-1.99,1.96-4.46,3.53-7.39,4.72-2.93,1.19-6.34,1.79-10.22,1.79-4.87,0-9.23-1.04-13.09-3.13-3.86-2.09-6.9-5.16-9.14-9.22-2.23-4.06-3.35-9.02-3.35-14.88s1.14-10.88,3.42-14.92c2.28-4.05,5.35-7.11,9.21-9.19,3.87-2.08,8.18-3.12,12.94-3.12,3.35,0,6.43.46,9.24,1.37,2.81.91,5.28,2.25,7.4,4,2.12,1.75,3.83,3.9,5.12,6.46,1.29,2.55,2.08,5.48,2.36,8.78Z"/>
    <path class="cls-1" d="M399.29,77.5V24.49h14.39v21.43h.72l15.95-21.43h16.77l-17.91,23.61,18.33,29.41h-17.19l-11.91-19.88-4.76,6.21v13.67h-14.39Z"/>
    <path class="cls-1" d="M494.44,41.05c-.14-1.73-.78-3.07-1.93-4.04-1.15-.97-2.89-1.45-5.22-1.45-1.48,0-2.7.18-3.64.53-.94.35-1.64.83-2.08,1.44-.45.6-.68,1.29-.7,2.07-.03.64.08,1.21.35,1.72.27.51.69.97,1.28,1.37.59.41,1.34.77,2.25,1.1.92.33,2,.62,3.26.88l4.35.93c2.93.62,5.45,1.44,7.53,2.46,2.09,1.02,3.8,2.21,5.12,3.59s2.31,2.91,2.94,4.62.95,3.57.97,5.59c-.02,3.49-.89,6.44-2.61,8.85-1.73,2.42-4.19,4.25-7.39,5.51-3.2,1.26-7.05,1.89-11.53,1.89s-8.62-.68-12.05-2.04c-3.43-1.36-6.08-3.46-7.97-6.3-1.89-2.84-2.84-6.48-2.86-10.91h13.67c.09,1.62.49,2.99,1.22,4.09s1.75,1.94,3.07,2.51c1.32.57,2.9.85,4.72.85,1.54,0,2.82-.19,3.86-.57,1.04-.38,1.82-.91,2.36-1.58.53-.67.81-1.44.83-2.3-.02-.81-.28-1.52-.79-2.14-.51-.61-1.34-1.17-2.5-1.66-1.16-.49-2.72-.95-4.69-1.39l-5.28-1.14c-4.69-1.02-8.39-2.72-11.09-5.11-2.7-2.39-4.04-5.66-4.03-9.8-.02-3.37.88-6.31,2.71-8.84,1.82-2.53,4.35-4.5,7.58-5.92,3.24-1.42,6.95-2.12,11.14-2.12s7.98.72,11.11,2.15c3.12,1.43,5.54,3.45,7.23,6.04,1.7,2.6,2.56,5.63,2.58,9.1h-13.77Z"/>
    <path class="cls-1" d="M565.78,50.99c0,5.9-1.15,10.88-3.44,14.92-2.3,4.05-5.39,7.11-9.29,9.19-3.9,2.08-8.25,3.12-13.05,3.12s-9.19-1.05-13.08-3.15-6.98-5.17-9.27-9.22c-2.29-4.05-3.43-9-3.43-14.87s1.14-10.88,3.43-14.92c2.29-4.05,5.38-7.11,9.27-9.19,3.89-2.08,8.25-3.12,13.08-3.12s9.15,1.04,13.05,3.12c3.9,2.08,7,5.14,9.29,9.19,2.29,4.05,3.44,9.02,3.44,14.92ZM550.98,50.99c0-3.17-.42-5.85-1.25-8.04-.84-2.18-2.07-3.84-3.7-4.97-1.63-1.13-3.64-1.7-6.02-1.7s-4.39.57-6.02,1.7c-1.63,1.13-2.86,2.79-3.7,4.97-.84,2.18-1.26,4.86-1.26,8.04s.42,5.85,1.26,8.04c.84,2.18,2.07,3.84,3.7,4.97s3.64,1.7,6.02,1.7,4.39-.56,6.02-1.7,2.86-2.79,3.7-4.97c.84-2.18,1.25-4.86,1.25-8.04Z"/>
    <path class="cls-1" d="M572.41,77.5V24.49h14.39v41.42h21.43v11.6h-35.83Z"/>
    <path class="cls-1" d="M628.42,24.49v53.01h-14.39V24.49h14.39Z"/>
    <path class="cls-1" d="M655.66,77.5h-20.4V24.49h20.19c5.45,0,10.17,1.06,14.15,3.17,3.98,2.11,7.05,5.15,9.21,9.11,2.17,3.96,3.25,8.7,3.25,14.22s-1.08,10.26-3.24,14.22c-2.16,3.96-5.21,7-9.16,9.11-3.95,2.11-8.62,3.17-14,3.17ZM649.65,65.28h5.49c2.62,0,4.86-.42,6.72-1.27,1.86-.85,3.27-2.3,4.25-4.37.98-2.07,1.46-4.95,1.46-8.65s-.5-6.58-1.49-8.65c-.99-2.07-2.44-3.53-4.35-4.37-1.91-.85-4.24-1.27-7-1.27h-5.07v28.58Z"/>
  </g>
  <g>
    <path class="cls-1" d="M263.23,128.15h-3.04c-.23-1.13-.63-2.18-1.22-3.15-.59-.96-1.32-1.81-2.21-2.53-.88-.72-1.89-1.28-3.01-1.68-1.12-.4-2.34-.6-3.64-.6-2.09,0-4,.54-5.72,1.63-1.72,1.09-3.1,2.69-4.13,4.8-1.03,2.11-1.55,4.69-1.55,7.74s.52,5.66,1.55,7.77c1.03,2.1,2.4,3.7,4.13,4.78,1.72,1.08,3.63,1.63,5.72,1.63,1.3,0,2.52-.2,3.64-.6,1.12-.4,2.12-.96,3.01-1.67.88-.72,1.62-1.56,2.21-2.53.59-.97.99-2.02,1.22-3.16h3.04c-.27,1.52-.77,2.94-1.51,4.25-.74,1.31-1.68,2.46-2.82,3.44-1.14.98-2.45,1.75-3.92,2.3s-3.1.83-4.87.83c-2.78,0-5.25-.7-7.41-2.1-2.16-1.4-3.85-3.37-5.07-5.91-1.22-2.54-1.84-5.55-1.84-9.01s.61-6.47,1.84-9.01c1.22-2.55,2.91-4.52,5.07-5.91,2.16-1.4,4.63-2.09,7.41-2.09,1.77,0,3.39.27,4.87.82,1.48.54,2.79,1.31,3.92,2.3,1.14.99,2.08,2.13,2.82,3.44.74,1.31,1.24,2.72,1.51,4.26Z"/>
    <path class="cls-1" d="M270.35,150.93v-33.13h3.03v15.19h18.8v-15.19h3.03v33.13h-3.03v-15.22h-18.8v15.22h-3.03Z"/>
    <path class="cls-1" d="M304,150.93v-33.13h10.69c2.35,0,4.32.42,5.9,1.27s2.77,2.02,3.58,3.51c.8,1.49,1.21,3.21,1.21,5.14s-.4,3.63-1.21,5.11c-.8,1.48-1.99,2.63-3.57,3.46-1.57.83-3.53,1.25-5.86,1.25h-9.11v-2.77h9.03c1.73,0,3.16-.29,4.31-.86,1.15-.57,2.01-1.39,2.57-2.44.57-1.06.85-2.31.85-3.75s-.29-2.71-.86-3.79c-.57-1.08-1.43-1.92-2.58-2.52-1.15-.59-2.6-.89-4.34-.89h-7.59v30.42h-3.03ZM318.61,135.98l8.15,14.95h-3.49l-8.07-14.95h3.41Z"/>
    <path class="cls-1" d="M335.78,117.79v33.13h-3.03v-33.13h3.03Z"/>
    <path class="cls-1" d="M362.57,126.08c-.18-1.84-1-3.31-2.44-4.4-1.45-1.09-3.26-1.63-5.45-1.63-1.54,0-2.9.26-4.07.79-1.17.53-2.09,1.26-2.75,2.19-.66.93-1,1.99-1,3.18,0,.87.19,1.64.57,2.3.38.66.89,1.22,1.53,1.69.64.47,1.35.87,2.14,1.21.78.33,1.57.61,2.37.84l3.5,1c1.06.29,2.11.66,3.17,1.12,1.06.45,2.02,1.02,2.9,1.71.88.69,1.58,1.52,2.12,2.51s.8,2.17.8,3.55c0,1.77-.46,3.36-1.38,4.77-.92,1.41-2.23,2.53-3.95,3.36-1.71.83-3.77,1.24-6.16,1.24-2.25,0-4.21-.38-5.87-1.12-1.66-.75-2.97-1.79-3.92-3.11-.95-1.33-1.48-2.86-1.6-4.61h3.11c.11,1.3.54,2.41,1.29,3.32s1.74,1.59,2.95,2.06c1.21.47,2.56.7,4.04.7,1.65,0,3.12-.28,4.41-.83s2.3-1.33,3.04-2.33c.74-1,1.11-2.16,1.11-3.49,0-1.12-.29-2.06-.87-2.82-.58-.76-1.39-1.4-2.44-1.92s-2.25-.98-3.62-1.38l-3.96-1.16c-2.6-.78-4.62-1.85-6.05-3.22-1.43-1.37-2.15-3.12-2.15-5.24,0-1.78.48-3.35,1.43-4.7.96-1.35,2.25-2.41,3.88-3.17,1.63-.76,3.47-1.14,5.51-1.14s3.88.38,5.47,1.13c1.59.75,2.84,1.79,3.78,3.11.93,1.32,1.43,2.82,1.5,4.51h-2.93Z"/>
    <path class="cls-1" d="M371.24,120.51v-2.72h24.03v2.72h-10.5v30.42h-3.03v-30.42h-10.5Z"/>
    <path class="cls-1" d="M405.09,117.79v33.13h-3.03v-33.13h3.03Z"/>
    <path class="cls-1" d="M413.93,150.93h-3.17l12.05-33.13h3.24l12.05,33.13h-3.17l-10.39-29.2h-.23l-10.39,29.2ZM416.22,138.23h16.44v2.72h-16.44v-2.72Z"/>
    <path class="cls-1" d="M469.59,117.79v33.13h-2.95l-19.58-27.75h-.26v27.75h-3.03v-33.13h2.93l19.64,27.78h.26v-27.78h2.98Z"/>
    <path class="cls-1" d="M517.15,128.15h-3.04c-.23-1.13-.63-2.18-1.22-3.15-.59-.96-1.32-1.81-2.21-2.53-.88-.72-1.89-1.28-3.01-1.68-1.12-.4-2.33-.6-3.64-.6-2.09,0-4,.54-5.72,1.63-1.72,1.09-3.1,2.69-4.12,4.8-1.03,2.11-1.54,4.69-1.54,7.74s.51,5.66,1.54,7.77c1.03,2.1,2.41,3.7,4.12,4.78,1.72,1.08,3.63,1.63,5.72,1.63,1.3,0,2.52-.2,3.64-.6,1.12-.4,2.12-.96,3.01-1.67.88-.72,1.62-1.56,2.21-2.53s1-2.02,1.22-3.16h3.04c-.27,1.52-.77,2.94-1.51,4.25-.74,1.31-1.68,2.46-2.82,3.44-1.14.98-2.45,1.75-3.92,2.3-1.48.55-3.1.83-4.87.83-2.78,0-5.25-.7-7.41-2.1-2.16-1.4-3.85-3.37-5.07-5.91-1.22-2.54-1.84-5.55-1.84-9.01s.61-6.47,1.84-9.01c1.22-2.55,2.92-4.52,5.07-5.91,2.16-1.4,4.63-2.09,7.41-2.09,1.77,0,3.39.27,4.87.82,1.48.54,2.79,1.31,3.92,2.3s2.08,2.13,2.82,3.44c.74,1.31,1.24,2.72,1.51,4.26Z"/>
    <path class="cls-1" d="M524.27,150.93v-33.13h3.03v15.19h18.8v-15.19h3.03v33.13h-3.03v-15.22h-18.8v15.22h-3.03Z"/>
    <path class="cls-1" d="M580.01,117.79h3.03v21.94c0,2.25-.53,4.27-1.58,6.04-1.06,1.77-2.53,3.17-4.41,4.19-1.88,1.02-4.07,1.53-6.56,1.53s-4.67-.51-6.55-1.54c-1.89-1.02-3.36-2.42-4.42-4.19-1.06-1.77-1.59-3.78-1.59-6.03v-21.94h3.03v21.73c0,1.76.39,3.33,1.18,4.7.79,1.38,1.9,2.46,3.32,3.24,1.43.79,3.1,1.18,5.02,1.18s3.6-.39,5.03-1.18c1.43-.79,2.54-1.87,3.32-3.24s1.17-2.94,1.17-4.7v-21.73Z"/>
    <path class="cls-1" d="M591.83,150.93v-33.13h10.69c2.35,0,4.32.42,5.9,1.27s2.77,2.02,3.58,3.51c.8,1.49,1.21,3.21,1.21,5.14s-.4,3.63-1.21,5.11c-.8,1.48-1.99,2.63-3.57,3.46-1.58.83-3.53,1.25-5.86,1.25h-9.11v-2.77h9.03c1.73,0,3.16-.29,4.31-.86,1.15-.57,2.01-1.39,2.57-2.44s.85-2.31.85-3.75-.29-2.71-.86-3.79c-.57-1.08-1.43-1.92-2.58-2.52-1.15-.59-2.6-.89-4.34-.89h-7.59v30.42h-3.03ZM606.44,135.98l8.15,14.95h-3.49l-8.07-14.95h3.41Z"/>
    <path class="cls-1" d="M646.53,128.15h-3.04c-.23-1.13-.63-2.18-1.22-3.15-.59-.96-1.32-1.81-2.21-2.53-.88-.72-1.89-1.28-3.01-1.68-1.12-.4-2.33-.6-3.64-.6-2.09,0-4,.54-5.72,1.63-1.72,1.09-3.1,2.69-4.12,4.8-1.03,2.11-1.54,4.69-1.54,7.74s.51,5.66,1.54,7.77c1.03,2.1,2.41,3.7,4.12,4.78,1.72,1.08,3.63,1.63,5.72,1.63,1.3,0,2.52-.2,3.64-.6,1.12-.4,2.12-.96,3.01-1.67.88-.72,1.62-1.56,2.21-2.53s1-2.02,1.22-3.16h3.04c-.27,1.52-.77,2.94-1.51,4.25-.74,1.31-1.68,2.46-2.82,3.44-1.14.98-2.45,1.75-3.92,2.3-1.48.55-3.1.83-4.87.83-2.78,0-5.25-.7-7.41-2.1-2.16-1.4-3.85-3.37-5.07-5.91-1.22-2.54-1.84-5.55-1.84-9.01s.61-6.47,1.84-9.01c1.22-2.55,2.92-4.52,5.07-5.91,2.16-1.4,4.63-2.09,7.41-2.09,1.77,0,3.39.27,4.87.82,1.48.54,2.79,1.31,3.92,2.3s2.08,2.13,2.82,3.44c.74,1.31,1.24,2.72,1.51,4.26Z"/>
    <path class="cls-1" d="M653.65,150.93v-33.13h3.03v15.19h18.8v-15.19h3.03v33.13h-3.03v-15.22h-18.8v15.22h-3.03Z"/>
  </g>
</svg>